<svg width="200" height="200" viewBox="0 0 200 200" fill="none" xmlns="http://www.w3.org/2000/svg">
<g id="triangles" clip-path="url(#clip0_104_43)">
<g id="white">
<path id="triangle1" d="M52.2085 31.1925C51.4293 32.4729 49.5707 32.4729 48.7915 31.1925L35.4624 9.28972C34.6513 7.95693 35.6107 6.25 37.1709 6.25H63.8291C65.3893 6.25 66.3487 7.95693 65.5376 9.28972L52.2085 31.1925Z"/>
</g>
<g id="lightblue">
<path id="triangle1_2" d="M52.2206 39.0962C51.446 40.4035 49.554 40.4035 48.7794 39.0962L35.4017 16.5195C34.6117 15.1863 35.5727 13.5 37.1223 13.5H63.8777C65.4273 13.5 66.3883 15.1863 65.5983 16.5195L52.2206 39.0962Z"/>
</g>
<g id="darkblue">
<path id="triangle1_3" d="M52.2085 31.1925C51.4293 32.4729 49.5707 32.4729 48.7915 31.1925L35.4624 9.28972C34.6513 7.95693 35.6107 6.25 37.1709 6.25H63.8291C65.3893 6.25 66.3487 7.95693 65.5376 9.28972L52.2085 31.1925Z"/>
</g>
</g>
<defs>
<clipPath id="clip0_104_43">
<rect width="200" height="200" fill="white"/>
</clipPath>
</defs>
</svg>
